<svg width="32" height="32" viewBox="0 0 32 32" xmlns="http://www.w3.org/2000/svg">
  <defs>
    <linearGradient id="bgGradient" x1="0%" y1="0%" x2="100%" y2="100%">
      <stop offset="0%" style="stop-color:#1a1a2e;stop-opacity:1" />
      <stop offset="50%" style="stop-color:#16213e;stop-opacity:1" />
      <stop offset="100%" style="stop-color:#0f3460;stop-opacity:1" />
    </linearGradient>
    
    <linearGradient id="textGradient" x1="0%" y1="0%" x2="100%" y2="0%">
      <stop offset="0%" style="stop-color:#4ade80;stop-opacity:1" />
      <stop offset="30%" style="stop-color:#22d3ee;stop-opacity:1" />
      <stop offset="70%" style="stop-color:#3b82f6;stop-opacity:1" />
      <stop offset="100%" style="stop-color:#8b5cf6;stop-opacity:1" />
    </linearGradient>
    
    <filter id="glow">
      <feGaussianBlur stdDeviation="2" result="coloredBlur"/>
      <feMerge> 
        <feMergeNode in="coloredBlur"/>
        <feMergeNode in="SourceGraphic"/>
      </feMerge>
    </filter>
  </defs>
  
  <!-- Background -->
  <rect width="32" height="32" rx="6" fill="url(#bgGradient)"/>
  
  <!-- Subtle tech pattern -->
  <circle cx="8" cy="8" r="0.5" fill="#4ade80" opacity="0.3"/>
  <circle cx="24" cy="6" r="0.3" fill="#22d3ee" opacity="0.4"/>
  <circle cx="26" cy="24" r="0.4" fill="#8b5cf6" opacity="0.3"/>
  <circle cx="6" cy="26" r="0.3" fill="#3b82f6" opacity="0.4"/>
  
  <!-- Letter E -->
  <path d="M 4 8.5 L 4 23.5 L 15 23.5 L 15 21 L 7 21 L 7 17.25 L 13 17.25 L 13 14.75 L 7 14.75 L 7 11 L 15 11 L 15 8.5 Z" 
        fill="url(#textGradient)" 
        filter="url(#glow)"/>
  
  <!-- Letter G -->
  <path d="M 16.5 16 C 16.5 20.69 20.31 24.5 25 24.5 C 28.04 24.5 30.65 22.7 32 19.93 L 29 18.57 C 28.25 20.15 26.73 21.25 25 21.25 C 22.1 21.25 19.75 18.9 19.75 16 C 19.75 13.1 22.1 10.75 25 10.75 C 26.73 10.75 28.25 11.85 29 13.43 L 32 12.07 C 30.65 9.3 28.04 7.5 25 7.5 C 20.31 7.5 16.5 11.31 16.5 16 Z M 25 13 L 25 19 L 30.5 19 L 30.5 16.5 L 28 16.5 L 28 13 Z" 
        fill="url(#textGradient)" 
        filter="url(#glow)"/>
</svg>
